# Blender 5.2.0 LTS
# www.blender.org
mtllib Cylinder.mtl
o Cylinder
v 0.000000 0.022127 -1.000000
v 0.000000 5.022127 -1.000000
v 0.239316 0.022127 -0.970942
v 0.239316 5.022127 -0.970942
v 0.464723 0.022127 -0.885456
v 0.464723 5.022127 -0.885456
v 0.663123 0.022127 -0.748511
v 0.663123 5.022127 -0.748511
v 0.822984 0.022127 -0.568065
v 0.822984 5.022127 -0.568065
v 0.935016 0.022127 -0.354605
v 0.935016 5.022127 -0.354605
v 0.992709 0.022127 -0.120537
v 0.992709 5.022127 -0.120537
v 0.992709 0.022127 0.120537
v 0.992709 5.022127 0.120537
v 0.935016 0.022127 0.354605
v 0.935016 5.022127 0.354605
v 0.822984 0.022127 0.568065
v 0.822984 5.022127 0.568065
v 0.663123 0.022127 0.748511
v 0.663123 5.022127 0.748511
v 0.464723 0.022127 0.885456
v 0.464723 5.022127 0.885456
v 0.239316 0.022127 0.970942
v 0.239316 5.022127 0.970942
v 0.000000 0.022127 1.000000
v 0.000000 5.022127 1.000000
v -0.239316 0.022127 0.970942
v -0.239316 5.022127 0.970942
v -0.464723 0.022127 0.885456
v -0.464723 5.022127 0.885456
v -0.663123 0.022127 0.748511
v -0.663123 5.022127 0.748511
v -0.822984 0.022127 0.568065
v -0.822984 5.022127 0.568065
v -0.935016 0.022127 0.354605
v -0.935016 5.022127 0.354605
v -0.992709 0.022127 0.120537
v -0.992709 5.022127 0.120537
v -0.992709 0.022127 -0.120537
v -0.992709 5.022127 -0.120537
v -0.935016 0.022127 -0.354605
v -0.935016 5.022127 -0.354605
v -0.822984 0.022127 -0.568065
v -0.822984 5.022127 -0.568065
v -0.663123 0.022127 -0.748511
v -0.663123 5.022127 -0.748511
v -0.464723 0.022127 -0.885456
v -0.464723 5.022127 -0.885456
v -0.239316 0.022127 -0.970942
v -0.239316 5.022127 -0.970942
vn -0.0000 -0.0000 -1.0000
vn 0.2393 -0.0000 -0.9709
vn 0.4647 -0.0000 -0.8855
vn 0.6631 -0.0000 -0.7485
vn 0.8230 -0.0000 -0.5681
vn 0.9350 -0.0000 -0.3546
vn 0.9927 -0.0000 -0.1205
vn 0.9927 -0.0000 0.1205
vn 0.9350 -0.0000 0.3546
vn 0.8230 -0.0000 0.5681
vn 0.6631 -0.0000 0.7485
vn 0.4647 -0.0000 0.8855
vn 0.2393 -0.0000 0.9709
vn -0.0000 -0.0000 1.0000
vn -0.2393 -0.0000 0.9709
vn -0.4647 -0.0000 0.8855
vn -0.6631 -0.0000 0.7485
vn -0.8230 -0.0000 0.5681
vn -0.9350 -0.0000 0.3546
vn -0.9927 -0.0000 0.1205
vn -0.9927 -0.0000 -0.1205
vn -0.9350 -0.0000 -0.3546
vn -0.8230 -0.0000 -0.5681
vn -0.6631 -0.0000 -0.7485
vn -0.4647 -0.0000 -0.8855
vn -0.2393 -0.0000 -0.9709
vt 1.000000 0.000000
vt 1.000000 1.000000
vt 0.961538 1.000000
vt 0.961538 0.000000
vt 0.923077 1.000000
vt 0.923077 0.000000
vt 0.884615 1.000000
vt 0.884615 0.000000
vt 0.846154 1.000000
vt 0.846154 0.000000
vt 0.807692 1.000000
vt 0.807692 0.000000
vt 0.769231 1.000000
vt 0.769231 0.000000
vt 0.730769 1.000000
vt 0.730769 0.000000
vt 0.692307 1.000000
vt 0.692307 0.000000
vt 0.653846 1.000000
vt 0.653846 0.000000
vt 0.615384 1.000000
vt 0.615384 0.000000
vt 0.576923 1.000000
vt 0.576923 0.000000
vt 0.538461 1.000000
vt 0.538461 0.000000
vt 0.500000 1.000000
vt 0.500000 0.000000
vt 0.461538 1.000000
vt 0.461538 0.000000
vt 0.423077 1.000000
vt 0.423077 0.000000
vt 0.384615 1.000000
vt 0.384615 0.000000
vt 0.346154 1.000000
vt 0.346154 0.000000
vt 0.307692 1.000000
vt 0.307692 0.000000
vt 0.269230 1.000000
vt 0.269230 0.000000
vt 0.230769 1.000000
vt 0.230769 0.000000
vt 0.192307 1.000000
vt 0.192307 0.000000
vt 0.153846 1.000000
vt 0.153846 0.000000
vt 0.115384 1.000000
vt 0.115384 0.000000
vt 0.076923 1.000000
vt 0.076923 0.000000
vt 0.038461 1.000000
vt 0.038461 0.000000
vt -0.000000 1.000000
vt -0.000000 0.000000
s 1
f 1/1/1 2/2/1 4/3/2 3/4/2
f 3/4/2 4/3/2 6/5/3 5/6/3
f 5/6/3 6/5/3 8/7/4 7/8/4
f 7/8/4 8/7/4 10/9/5 9/10/5
f 9/10/5 10/9/5 12/11/6 11/12/6
f 11/12/6 12/11/6 14/13/7 13/14/7
f 13/14/7 14/13/7 16/15/8 15/16/8
f 15/16/8 16/15/8 18/17/9 17/18/9
f 17/18/9 18/17/9 20/19/10 19/20/10
f 19/20/10 20/19/10 22/21/11 21/22/11
f 21/22/11 22/21/11 24/23/12 23/24/12
f 23/24/12 24/23/12 26/25/13 25/26/13
f 25/26/13 26/25/13 28/27/14 27/28/14
f 27/28/14 28/27/14 30/29/15 29/30/15
f 29/30/15 30/29/15 32/31/16 31/32/16
f 31/32/16 32/31/16 34/33/17 33/34/17
f 33/34/17 34/33/17 36/35/18 35/36/18
f 35/36/18 36/35/18 38/37/19 37/38/19
f 37/38/19 38/37/19 40/39/20 39/40/20
f 39/40/20 40/39/20 42/41/21 41/42/21
f 41/42/21 42/41/21 44/43/22 43/44/22
f 43/44/22 44/43/22 46/45/23 45/46/23
f 45/46/23 46/45/23 48/47/24 47/48/24
f 47/48/24 48/47/24 50/49/25 49/50/25
f 49/50/25 50/49/25 52/51/26 51/52/26
f 51/52/26 52/51/26 2/53/1 1/54/1
